<svg width="191" height="44" viewBox="0 0 191 44" fill="none" xmlns="http://www.w3.org/2000/svg">
<path d="M2.00871 13.6404V12.1221H8.10658V13.6404H2.00871ZM5.64352 0.385594L1.57827 17.2554H0L4.06524 0.385594H5.64352ZM5.69134 0.385594L9.75659 17.2554H8.17831L4.11307 0.385594H5.69134Z" fill="white"/>
<path d="M30.4361 9.27838V7.6878C31.3288 7.6878 32.0223 7.4227 32.5165 6.89251C33.0267 6.36232 33.2818 5.63129 33.2818 4.69944H34.86C34.86 5.56703 34.6687 6.34625 34.2861 7.03711C33.9035 7.72797 33.3774 8.27422 32.7078 8.67589C32.0383 9.07755 31.281 9.27838 30.4361 9.27838ZM28.0687 17.2554V15.7371H30.6752V17.2554H28.0687ZM28.0687 9.27838V7.6878H30.6752V9.27838H28.0687ZM33.5209 12.9415V12.3149H35.0992V12.9415H33.5209ZM33.5209 12.339C33.5209 11.3751 33.2658 10.628 32.7557 10.0978C32.2615 9.55151 31.568 9.27838 30.6752 9.27838V7.6878C31.5202 7.6878 32.2774 7.89666 32.947 8.31439C33.6165 8.71605 34.1426 9.27034 34.5252 9.97727C34.9079 10.6681 35.0992 11.4554 35.0992 12.339H33.5209ZM28.0687 1.90387V0.385594H30.4361V1.90387H28.0687ZM34.86 4.72354H33.2818C33.2818 3.82382 33.0267 3.13296 32.5165 2.65097C32.0223 2.15291 31.3288 1.90387 30.4361 1.90387V0.385594C31.3288 0.385594 32.102 0.570359 32.7557 0.939887C33.4252 1.29335 33.9434 1.79944 34.31 2.45817C34.6767 3.10083 34.86 3.85595 34.86 4.72354ZM35.0992 12.9174C35.0992 13.785 34.9158 14.5482 34.5492 15.2069C34.1825 15.8496 33.6644 16.3557 32.9948 16.7252C32.3412 17.0786 31.568 17.2554 30.6752 17.2554V15.7371C31.568 15.7371 32.2615 15.4881 32.7557 14.99C33.2658 14.4919 33.5209 13.8011 33.5209 12.9174H35.0992ZM27.2078 17.2554V0.385594H28.7861V17.2554H27.2078Z" fill="white"/>
<path d="M59.7195 13.5681C59.7195 12.9576 59.5521 12.4113 59.2173 11.9293C58.8985 11.4473 58.476 10.9895 57.9499 10.5557C57.4398 10.1219 56.8898 9.68807 56.2999 9.25428C55.71 8.82048 55.1521 8.35456 54.626 7.8565C54.1158 7.35844 53.6934 6.80414 53.3586 6.19362C53.0397 5.56703 52.8803 4.8601 52.8803 4.07285H54.4586C54.4586 4.6673 54.618 5.21356 54.9368 5.71162C55.2716 6.19362 55.6941 6.65151 56.2042 7.08531C56.7303 7.5191 57.2883 7.9529 57.8782 8.38669C58.468 8.82048 59.018 9.28641 59.5282 9.78447C60.0543 10.2825 60.4767 10.8368 60.7956 11.4474C61.1304 12.0579 61.2978 12.7648 61.2978 13.5681H59.7195ZM52.8803 4.12105C52.8803 3.25346 53.0636 2.5144 53.4303 1.90387C53.797 1.29335 54.3151 0.827422 54.9847 0.506093C55.6542 0.184764 56.4274 0.0240994 57.3042 0.0240994V1.54238C56.4115 1.54238 55.71 1.77534 55.1999 2.24127C54.7057 2.69113 54.4586 3.31772 54.4586 4.12105H52.8803ZM61.2978 13.5199C61.2978 14.3875 61.1144 15.1266 60.7477 15.7371C60.3811 16.3476 59.863 16.8135 59.1934 17.1349C58.5398 17.4562 57.7666 17.6169 56.8738 17.6169V16.0986C57.7666 16.0986 58.4601 15.8737 58.9543 15.4238C59.4644 14.9579 59.7195 14.3232 59.7195 13.5199H61.2978ZM59.8151 3.71135C59.7354 2.95623 59.4564 2.40997 58.9782 2.07257C58.4999 1.71911 57.9419 1.54238 57.3042 1.54238V0.0240994C58.0057 0.0240994 58.6434 0.176731 59.2173 0.481993C59.8072 0.77119 60.2854 1.16482 60.6521 1.66288C61.0347 2.16094 61.2659 2.7313 61.3456 3.37396L59.8151 3.71135ZM53.7651 12.7487C53.8767 13.7931 54.2035 14.6124 54.7455 15.2069C55.2876 15.8014 55.997 16.0986 56.8738 16.0986V17.6169C55.6144 17.6169 54.5781 17.2152 53.7651 16.4119C52.968 15.6086 52.4818 14.4919 52.3064 13.062L53.7651 12.7487Z" fill="white"/>
<path d="M77.971 1.90387V0.385594H87.2972V1.90387H77.971ZM81.845 17.2554V0.385594H83.4233V17.2554H81.845Z" fill="white"/>
<path d="M110.725 17.2554L107.64 8.86868H109.314L112.399 17.2554H110.725ZM105.129 9.76037V8.24209H107.999V9.76037H105.129ZM105.129 1.90387V0.385594H107.999V1.90387H105.129ZM110.82 5.44653V4.69944H112.399V5.44653H110.82ZM112.399 4.72354H110.82C110.82 3.82382 110.565 3.13296 110.055 2.65097C109.561 2.15291 108.867 1.90387 107.975 1.90387V0.385594C108.867 0.385594 109.641 0.570359 110.294 0.939887C110.964 1.29335 111.482 1.79944 111.849 2.45817C112.215 3.10083 112.399 3.85595 112.399 4.72354ZM112.399 5.42243C112.399 6.29002 112.215 7.05317 111.849 7.7119C111.482 8.35456 110.964 8.86065 110.294 9.23018C109.641 9.58364 108.867 9.76037 107.975 9.76037V8.24209C108.867 8.24209 109.561 7.99306 110.055 7.495C110.565 6.99694 110.82 6.30608 110.82 5.42243H112.399ZM104.507 17.2554V0.385594H106.085V17.2554H104.507Z" fill="white"/>
<path d="M131.378 13.6404V12.1221H137.476V13.6404H131.378ZM135.013 0.385594L130.948 17.2554H129.369L133.435 0.385594H135.013ZM135.061 0.385594L139.126 17.2554H137.548L133.483 0.385594H135.061Z" fill="white"/>
<path d="M156.338 13.303V4.33794H157.916V13.303H156.338ZM156.338 4.33794C156.338 3.47035 156.521 2.71523 156.888 2.07257C157.255 1.41385 157.773 0.907755 158.443 0.554293C159.112 0.184764 159.885 0 160.762 0V1.51828C159.869 1.51828 159.168 1.76731 158.658 2.26537C158.164 2.74736 157.916 3.43822 157.916 4.33794H156.338ZM156.338 13.303H157.916C157.916 14.1867 158.164 14.8775 158.658 15.3756C159.168 15.8737 159.869 16.1227 160.762 16.1227V17.641C159.885 17.641 159.112 17.4642 158.443 17.1108C157.773 16.7412 157.255 16.2352 156.888 15.5925C156.521 14.9338 156.338 14.1706 156.338 13.303ZM163.847 4.86814C163.735 3.82382 163.408 3.00443 162.866 2.40997C162.324 1.81551 161.615 1.51828 160.738 1.51828V0C161.998 0 163.026 0.401661 163.823 1.20498C164.636 2.00831 165.13 3.12493 165.306 4.55484L163.847 4.86814ZM163.847 12.7728L165.306 13.0861C165.13 14.516 164.636 15.6327 163.823 16.436C163.026 17.2393 161.998 17.641 160.738 17.641V16.1227C161.615 16.1227 162.324 15.8255 162.866 15.231C163.408 14.6365 163.735 13.8172 163.847 12.7728Z" fill="white"/>
<path d="M181.341 1.90387V0.385594H190.667V1.90387H181.341ZM185.214 17.2554V0.385594H186.793V17.2554H185.214Z" fill="white"/>
<path d="M4.11307 43.6144L8.17831 26.7446H9.75659L5.69134 43.6144H4.11307ZM4.06524 43.6144L0 26.7446H1.57827L5.64352 43.6144H4.06524Z" fill="white"/>
<path d="M34.3579 39.6621V30.697H35.9361V39.6621H34.3579ZM27.0882 39.6621V30.697H28.6665V39.6621H27.0882ZM35.9361 30.7211H34.3579C34.3579 29.8214 34.1028 29.1305 33.5926 28.6485C33.0984 28.1504 32.4049 27.9014 31.5122 27.9014V26.3831C32.4049 26.3831 33.1781 26.5679 33.8318 26.9374C34.5013 27.2909 35.0195 27.797 35.3861 28.4557C35.7528 29.0984 35.9361 29.8535 35.9361 30.7211ZM27.0882 30.7211C27.0882 29.8535 27.2716 29.0984 27.6382 28.4557C28.0049 27.797 28.523 27.2909 29.1926 26.9374C29.8622 26.5679 30.6354 26.3831 31.5122 26.3831V27.9014C30.6194 27.9014 29.918 28.1504 29.4078 28.6485C28.9136 29.1305 28.6665 29.8214 28.6665 30.7211H27.0882ZM35.9361 39.638C35.9361 40.5055 35.7528 41.2687 35.3861 41.9274C35.0195 42.5701 34.5013 43.0762 33.8318 43.4457C33.1781 43.7992 32.4049 43.9759 31.5122 43.9759V42.4576C32.4049 42.4576 33.0984 42.2086 33.5926 41.7105C34.1028 41.2125 34.3579 40.5216 34.3579 39.638H35.9361ZM27.0882 39.638H28.6665C28.6665 40.5216 28.9136 41.2125 29.4078 41.7105C29.918 42.2086 30.6194 42.4576 31.5122 42.4576V43.9759C30.6354 43.9759 29.8622 43.7992 29.1926 43.4457C28.523 43.0762 28.0049 42.5701 27.6382 41.9274C27.2716 41.2687 27.0882 40.5055 27.0882 39.638Z" fill="white"/>
<path d="M56.8714 37.8787L60.4584 26.7446H62.0366L58.4497 37.8787H56.8714ZM56.8714 43.6144V37.8787H58.4497V43.6144H56.8714ZM56.8714 37.8787L53.2844 26.7446H54.8627L58.4497 37.8787H56.8714Z" fill="white"/>
<path d="M79.7051 39.9994V38.4812H85.803V39.9994H79.7051ZM83.3399 26.7446L79.2747 43.6144H77.6964L81.7617 26.7446H83.3399ZM83.3878 26.7446L87.453 43.6144H85.8747L81.8095 26.7446H83.3878Z" fill="white"/>
<path d="M108.969 36.3363V34.818H113.489V36.3363H108.969ZM111.911 39.6862V34.8903H113.489V39.6862H111.911ZM104.665 39.6621V30.697H106.243V39.6621H104.665ZM104.665 30.697C104.665 29.8294 104.848 29.0743 105.215 28.4316C105.582 27.7729 106.1 27.2668 106.769 26.9133C107.439 26.5438 108.212 26.359 109.089 26.359V27.8773C108.196 27.8773 107.495 28.1263 106.985 28.6244C106.49 29.1064 106.243 29.7973 106.243 30.697H104.665ZM104.665 39.6621H106.243C106.243 40.5457 106.49 41.2366 106.985 41.7346C107.495 42.2327 108.196 42.4817 109.089 42.4817V44C108.212 44 107.439 43.8233 106.769 43.4698C106.1 43.1003 105.582 42.5942 105.215 41.9515C104.848 41.2928 104.665 40.5296 104.665 39.6621ZM112.174 31.2272C112.062 30.1828 111.735 29.3635 111.193 28.769C110.651 28.1745 109.942 27.8773 109.065 27.8773V26.359C110.325 26.359 111.353 26.7607 112.15 27.564C112.963 28.3673 113.457 29.484 113.633 30.9139L112.174 31.2272ZM113.489 39.6621C113.489 40.5296 113.306 41.2928 112.939 41.9515C112.572 42.5942 112.054 43.1003 111.385 43.4698C110.731 43.8233 109.958 44 109.065 44V42.4817C109.958 42.4817 110.651 42.2327 111.146 41.7346C111.656 41.2366 111.911 40.5457 111.911 39.6621H113.489Z" fill="white"/>
<path d="M132.32 43.6144V42.0961H139.111V43.6144H132.32ZM132.798 36.023V34.4324H137.677V36.023H132.798ZM131.698 26.7446H133.276V43.6144H131.698V26.7446ZM132.559 26.7446H138.872V28.2629H132.559V26.7446Z" fill="white"/>
</svg>
