<svg width="221" height="31" viewBox="0 0 221 31" fill="none" xmlns="http://www.w3.org/2000/svg">
<path d="M8.3746 9.80957V13.9316H8.04941C7.94394 13.1406 7.75351 12.5107 7.47812 12.042C7.20859 11.5732 6.82187 11.2012 6.31796 10.9258C5.81406 10.6504 5.29257 10.5127 4.75351 10.5127C4.14413 10.5127 3.64023 10.7002 3.24179 11.0752C2.84335 11.4443 2.64413 11.8662 2.64413 12.3408C2.64413 12.7041 2.77011 13.0352 3.02206 13.334C3.38535 13.7734 4.2496 14.3594 5.61484 15.0918C6.72812 15.6895 7.48691 16.1494 7.8912 16.4717C8.30136 16.7881 8.61484 17.1631 8.83163 17.5967C9.05429 18.0303 9.16562 18.4844 9.16562 18.959C9.16562 19.8613 8.81406 20.6406 8.11093 21.2969C7.41367 21.9473 6.51425 22.2725 5.41269 22.2725C5.06699 22.2725 4.74179 22.2461 4.4371 22.1934C4.25546 22.1641 3.87753 22.0586 3.30331 21.877C2.73495 21.6895 2.3746 21.5957 2.22226 21.5957C2.07578 21.5957 1.95859 21.6396 1.8707 21.7275C1.78867 21.8154 1.72714 21.9971 1.68613 22.2725H1.36093V18.1855H1.68613C1.83847 19.041 2.04355 19.6826 2.30136 20.1104C2.55917 20.5322 2.95175 20.8838 3.4791 21.165C4.0123 21.4463 4.59531 21.5869 5.22812 21.5869C5.96054 21.5869 6.53769 21.3936 6.95956 21.0068C7.3873 20.6201 7.60117 20.1631 7.60117 19.6357C7.60117 19.3428 7.51913 19.0469 7.35507 18.748C7.19687 18.4492 6.94785 18.1709 6.608 17.9131C6.37949 17.7373 5.75546 17.3652 4.73593 16.7969C3.7164 16.2227 2.98984 15.7656 2.55624 15.4258C2.12851 15.0859 1.80331 14.7109 1.58066 14.3008C1.358 13.8906 1.24667 13.4395 1.24667 12.9473C1.24667 12.0918 1.5748 11.3564 2.23105 10.7412C2.8873 10.1201 3.72226 9.80957 4.73593 9.80957C5.36874 9.80957 6.03964 9.96484 6.74863 10.2754C7.07675 10.4219 7.3082 10.4951 7.44296 10.4951C7.59531 10.4951 7.71835 10.4512 7.8121 10.3633C7.91171 10.2695 7.99081 10.085 8.04941 9.80957H8.3746ZM32.0762 10.082L32.2081 12.877H31.8741C31.8096 12.3848 31.7218 12.0332 31.6104 11.8223C31.4288 11.4824 31.1856 11.2334 30.8809 11.0752C30.5821 10.9111 30.1866 10.8291 29.6944 10.8291H28.0157V19.9346C28.0157 20.667 28.0948 21.124 28.253 21.3057C28.4757 21.5518 28.8184 21.6748 29.2813 21.6748H29.6944V22H24.6407V21.6748H25.0626C25.5665 21.6748 25.9239 21.5225 26.1348 21.2178C26.2637 21.0303 26.3282 20.6025 26.3282 19.9346V10.8291H24.8956C24.3389 10.8291 23.9434 10.8701 23.7091 10.9521C23.4044 11.0635 23.1436 11.2773 22.9268 11.5938C22.71 11.9102 22.5811 12.3379 22.5401 12.877H22.2061L22.3468 10.082H32.0762ZM52.4205 18.0098H47.8062L46.9976 19.8906C46.7984 20.3535 46.6988 20.6992 46.6988 20.9277C46.6988 21.1094 46.7837 21.2705 46.9537 21.4111C47.1294 21.5459 47.5044 21.6338 48.0787 21.6748V22H44.3257V21.6748C44.8238 21.5869 45.146 21.4727 45.2925 21.332C45.5914 21.0508 45.9224 20.4795 46.2857 19.6182L50.4781 9.80957H50.7857L54.9341 19.7236C55.2681 20.5205 55.5699 21.0391 55.8394 21.2793C56.1148 21.5137 56.4957 21.6455 56.982 21.6748V22H52.2798V21.6748C52.7544 21.6514 53.0738 21.5723 53.2378 21.4375C53.4078 21.3027 53.4927 21.1387 53.4927 20.9453C53.4927 20.6875 53.3755 20.2803 53.1412 19.7236L52.4205 18.0098ZM52.1744 17.3594L50.1529 12.543L48.0787 17.3594H52.1744ZM79.128 10.082L79.2598 12.877H78.9258C78.8614 12.3848 78.7735 12.0332 78.6621 11.8223C78.4805 11.4824 78.2373 11.2334 77.9326 11.0752C77.6338 10.9111 77.2383 10.8291 76.7461 10.8291H75.0674V19.9346C75.0674 20.667 75.1465 21.124 75.3047 21.3057C75.5274 21.5518 75.8701 21.6748 76.333 21.6748H76.7461V22H71.6924V21.6748H72.1143C72.6182 21.6748 72.9756 21.5225 73.1866 21.2178C73.3155 21.0303 73.3799 20.6025 73.3799 19.9346V10.8291H71.9473C71.3907 10.8291 70.9951 10.8701 70.7608 10.9521C70.4561 11.0635 70.1953 11.2773 69.9785 11.5938C69.7617 11.9102 69.6328 12.3379 69.5918 12.877H69.2578L69.3985 10.082H79.128ZM94.9986 10.7324V15.4434H97.6177C98.2974 15.4434 98.7515 15.3408 98.98 15.1357C99.2847 14.8662 99.4546 14.3916 99.4898 13.7119H99.815V17.8604H99.4898C99.4077 17.2803 99.3257 16.9082 99.2437 16.7441C99.1382 16.5391 98.9653 16.3779 98.7251 16.2607C98.4849 16.1436 98.1157 16.085 97.6177 16.085H94.9986V20.0137C94.9986 20.541 95.022 20.8633 95.0689 20.9805C95.1157 21.0918 95.1978 21.1826 95.315 21.2529C95.4321 21.3174 95.6548 21.3496 95.9829 21.3496H98.0044C98.6782 21.3496 99.1675 21.3027 99.4722 21.209C99.7769 21.1152 100.07 20.9307 100.351 20.6553C100.714 20.292 101.086 19.7441 101.467 19.0117H101.819L100.791 22H91.606V21.6748H92.0278C92.3091 21.6748 92.5757 21.6074 92.8277 21.4727C93.0152 21.3789 93.1411 21.2383 93.2056 21.0508C93.2759 20.8633 93.3111 20.4795 93.3111 19.8994V12.1562C93.3111 11.4004 93.2349 10.9346 93.0825 10.7588C92.8716 10.5244 92.52 10.4072 92.0278 10.4072H91.606V10.082H100.791L100.922 12.6924H100.58C100.457 12.0654 100.319 11.6348 100.167 11.4004C100.02 11.166 99.8003 10.9873 99.5073 10.8643C99.273 10.7764 98.8599 10.7324 98.2681 10.7324H94.9986ZM170.056 18.0098H165.442L164.633 19.8906C164.434 20.3535 164.334 20.6992 164.334 20.9277C164.334 21.1094 164.419 21.2705 164.589 21.4111C164.765 21.5459 165.14 21.6338 165.714 21.6748V22H161.961V21.6748C162.459 21.5869 162.782 21.4727 162.928 21.332C163.227 21.0508 163.558 20.4795 163.921 19.6182L168.114 9.80957H168.421L172.57 19.7236C172.904 20.5205 173.206 21.0391 173.475 21.2793C173.75 21.5137 174.131 21.6455 174.618 21.6748V22H169.915V21.6748C170.39 21.6514 170.709 21.5723 170.873 21.4375C171.043 21.3027 171.128 21.1387 171.128 20.9453C171.128 20.6875 171.011 20.2803 170.777 19.7236L170.056 18.0098ZM169.81 17.3594L167.789 12.543L165.714 17.3594H169.81ZM198.513 22H195.331L191.297 16.4277C190.998 16.4395 190.755 16.4453 190.567 16.4453C190.491 16.4453 190.409 16.4453 190.321 16.4453C190.233 16.4395 190.143 16.4336 190.049 16.4277V19.8906C190.049 20.6406 190.131 21.1064 190.295 21.2881C190.518 21.5459 190.851 21.6748 191.297 21.6748H191.763V22H186.656V21.6748H187.104C187.608 21.6748 187.969 21.5107 188.185 21.1826C188.309 21.001 188.37 20.5703 188.37 19.8906V12.1914C188.37 11.4414 188.288 10.9756 188.124 10.7939C187.895 10.5361 187.556 10.4072 187.104 10.4072H186.656V10.082H190.998C192.264 10.082 193.195 10.1758 193.793 10.3633C194.396 10.5449 194.906 10.8848 195.322 11.3828C195.744 11.875 195.955 12.4639 195.955 13.1494C195.955 13.8818 195.715 14.5176 195.234 15.0566C194.76 15.5957 194.021 15.9766 193.019 16.1992L195.48 19.6182C196.043 20.4033 196.526 20.9248 196.931 21.1826C197.335 21.4404 197.862 21.6045 198.513 21.6748V22ZM190.049 15.874C190.16 15.874 190.257 15.877 190.339 15.8828C190.421 15.8828 190.488 15.8828 190.541 15.8828C191.678 15.8828 192.533 15.6367 193.107 15.1445C193.687 14.6523 193.977 14.0254 193.977 13.2637C193.977 12.5195 193.743 11.916 193.274 11.4531C192.811 10.9844 192.196 10.75 191.429 10.75C191.089 10.75 190.629 10.8057 190.049 10.917V15.874ZM220.289 10.082L220.421 12.877H220.087C220.023 12.3848 219.935 12.0332 219.824 11.8223C219.642 11.4824 219.399 11.2334 219.094 11.0752C218.795 10.9111 218.4 10.8291 217.908 10.8291H216.229V19.9346C216.229 20.667 216.308 21.124 216.466 21.3057C216.689 21.5518 217.032 21.6748 217.495 21.6748H217.908V22H212.854V21.6748H213.276C213.78 21.6748 214.137 21.5225 214.348 21.2178C214.477 21.0303 214.541 20.6025 214.541 19.9346V10.8291H213.109C212.552 10.8291 212.157 10.8701 211.922 10.9521C211.618 11.0635 211.357 11.2773 211.14 11.5938C210.923 11.9102 210.794 12.3379 210.753 12.877H210.419L210.56 10.082H220.289Z" fill="#E2E8F0"/>
<path d="M113.724 17.7402C113.724 18.0645 113.804 18.334 113.964 18.5488C114.129 18.7598 114.367 18.8652 114.679 18.8652C115.316 18.8652 115.88 18.3848 116.373 17.4238C116.791 16.5996 117 15.8418 117 15.1504C117 14.8574 116.964 14.6211 116.894 14.4414C116.757 14.1016 116.507 13.9316 116.144 13.9316C115.546 13.9316 114.986 14.3789 114.462 15.2734C113.97 16.1094 113.724 16.9316 113.724 17.7402ZM116.209 13.6855C116.865 13.6855 117.328 13.8613 117.597 14.2129C117.867 14.5605 118.002 14.9727 118.002 15.4492C118.002 16.2773 117.636 17.0898 116.906 17.8867C116.152 18.7148 115.347 19.1289 114.492 19.1289C113.953 19.1289 113.521 18.9727 113.197 18.6602C112.873 18.3477 112.711 17.9082 112.711 17.3418C112.711 16.4863 113.074 15.668 113.8 14.8867C114.543 14.0859 115.345 13.6855 116.209 13.6855ZM126.114 11.6113C126.114 11.7363 126.071 11.8535 125.985 11.9629C125.899 12.0723 125.78 12.127 125.628 12.127C125.495 12.127 125.386 12.0859 125.3 12.0039C125.214 11.918 125.171 11.8184 125.171 11.7051C125.171 11.627 125.208 11.4922 125.282 11.3008C125.282 11.25 125.257 11.2051 125.206 11.166C125.155 11.1309 125.089 11.1133 125.007 11.1133C124.624 11.1133 124.304 11.4277 124.046 12.0566C123.901 12.4199 123.739 13.0312 123.56 13.8906H124.866L124.784 14.2832H123.477L122.616 18.0859C122.386 19.1055 122.075 19.9297 121.685 20.5586C121.298 21.1875 120.802 21.502 120.196 21.502C119.919 21.502 119.692 21.4258 119.517 21.2734C119.337 21.1211 119.247 20.9512 119.247 20.7637C119.247 20.6465 119.286 20.5371 119.364 20.4355C119.438 20.334 119.552 20.2832 119.704 20.2832C119.837 20.2832 119.95 20.3262 120.044 20.4121C120.134 20.502 120.179 20.6113 120.179 20.7402C120.179 20.8105 120.159 20.8809 120.12 20.9512C120.077 21.0254 120.056 21.0762 120.056 21.1035C120.056 21.1387 120.079 21.168 120.126 21.1914C120.169 21.2148 120.226 21.2266 120.296 21.2266C120.628 21.2266 120.909 20.9648 121.14 20.4414C121.261 20.168 121.372 19.791 121.474 19.3105L122.534 14.2832H121.45L121.532 13.8906H122.64C122.878 12.9805 123.145 12.3066 123.442 11.8691C123.884 11.1973 124.429 10.8613 125.077 10.8613C125.374 10.8613 125.62 10.9375 125.815 11.0898C126.015 11.2422 126.114 11.416 126.114 11.6113ZM133.105 18.6133C133.105 18.582 133.107 18.5469 133.111 18.5078C133.115 18.4648 133.123 18.4219 133.134 18.3789L134.236 14.2832H133.345C133.345 14.1777 133.353 14.1113 133.369 14.084C133.384 14.0566 133.424 14.0293 133.486 14.002C133.881 13.834 134.185 13.6719 134.4 13.5156C134.619 13.3594 134.916 13.0586 135.291 12.6133L135.384 12.502C135.396 12.4863 135.41 12.4746 135.425 12.4668C135.445 12.4551 135.465 12.4492 135.484 12.4492C135.523 12.457 135.55 12.4648 135.566 12.4727C135.578 12.5 135.584 12.5254 135.584 12.5488C135.588 12.5684 135.588 12.5898 135.584 12.6133L135.25 13.8906H136.205L136.134 14.2832H135.138L134.084 18.2266C134.064 18.2969 134.07 18.3652 134.101 18.4316C134.132 18.4941 134.185 18.5254 134.259 18.5254C134.361 18.5254 134.504 18.4238 134.687 18.2207C134.793 18.1113 134.97 17.8945 135.22 17.5703L135.373 17.6582L135.291 17.7812C134.955 18.2852 134.658 18.6367 134.4 18.8359C134.146 19.0312 133.904 19.1289 133.674 19.1289C133.474 19.1289 133.33 19.0762 133.24 18.9707C133.15 18.8652 133.105 18.7461 133.105 18.6133ZM139.964 11.1426C140.214 11.1074 140.415 11.0801 140.567 11.0605C140.724 11.0371 140.858 11.0156 140.972 10.9961C141.433 10.9062 141.681 10.8574 141.716 10.8496C141.751 10.8418 141.778 10.8379 141.798 10.8379C141.845 10.8613 141.868 10.8906 141.868 10.9258L140.491 16.1582C140.983 15.4316 141.386 14.9004 141.698 14.5645C142.245 13.9863 142.747 13.6973 143.204 13.6973C143.392 13.6973 143.571 13.7578 143.743 13.8789C143.919 13.9961 144.007 14.209 144.007 14.5176C144.007 14.5918 143.997 14.6875 143.978 14.8047C143.958 14.9219 143.935 15.0254 143.907 15.1152L143.116 17.9219C143.093 18 143.073 18.0762 143.058 18.1504C143.042 18.2207 143.034 18.2852 143.034 18.3438C143.034 18.4102 143.05 18.4609 143.081 18.4961C143.112 18.5273 143.157 18.543 143.216 18.543C143.337 18.543 143.48 18.459 143.644 18.291C143.745 18.1855 143.935 17.9551 144.212 17.5996L144.364 17.7402C144.091 18.1465 143.858 18.4434 143.667 18.6309C143.327 18.9629 142.985 19.1289 142.642 19.1289C142.485 19.1289 142.355 19.0801 142.249 18.9824C142.144 18.8848 142.091 18.7441 142.091 18.5605C142.091 18.5098 142.093 18.4629 142.097 18.4199C142.105 18.373 142.116 18.3223 142.132 18.2676L143.034 14.834C143.042 14.8027 143.048 14.7715 143.052 14.7402C143.06 14.7051 143.064 14.6699 143.064 14.6348C143.064 14.5371 143.034 14.4609 142.976 14.4062C142.913 14.3516 142.833 14.3242 142.735 14.3242C142.474 14.3242 142.144 14.5352 141.745 14.957C141.347 15.375 141.011 15.8027 140.737 16.2402C140.55 16.5488 140.407 16.8398 140.31 17.1133C140.216 17.3867 140.032 18.0156 139.759 19H138.851L140.726 11.8926C140.737 11.8418 140.745 11.7988 140.749 11.7637C140.753 11.7285 140.755 11.6953 140.755 11.6641C140.755 11.4961 140.7 11.3965 140.591 11.3652C140.481 11.3301 140.273 11.3203 139.964 11.3359V11.1426ZM147.649 17.4473C147.649 16.5801 148.039 15.7402 148.821 14.9277C149.594 14.1152 150.393 13.709 151.217 13.709C151.522 13.709 151.764 13.7793 151.944 13.9199C152.123 14.0605 152.213 14.2695 152.213 14.5469C152.213 15.1094 151.883 15.5918 151.223 15.9941C150.567 16.3926 149.875 16.6367 149.149 16.7266L148.815 16.7676C148.764 16.9277 148.729 17.0566 148.709 17.1543C148.69 17.248 148.68 17.3672 148.68 17.5117C148.68 17.8555 148.791 18.123 149.014 18.3145C149.241 18.5059 149.508 18.6016 149.817 18.6016C150.11 18.6016 150.42 18.5039 150.748 18.3086C150.936 18.1953 151.207 17.9922 151.563 17.6992L151.715 17.834C151.539 18.0566 151.287 18.2852 150.959 18.5195C150.377 18.9375 149.793 19.1465 149.207 19.1465C148.793 19.1465 148.43 19 148.118 18.707C147.805 18.4141 147.649 17.9941 147.649 17.4473ZM148.897 16.5039C149.643 16.3945 150.25 16.1328 150.719 15.7188C151.188 15.3008 151.422 14.8867 151.422 14.4766C151.422 14.3281 151.387 14.2109 151.317 14.125C151.246 14.0352 151.143 13.9902 151.006 13.9902C150.752 13.9902 150.502 14.0996 150.256 14.3184C150.014 14.5332 149.795 14.7773 149.6 15.0508C149.393 15.3711 149.229 15.6777 149.108 15.9707C149.041 16.127 148.971 16.3047 148.897 16.5039Z" fill="#475569"/>
</svg>
